<svg xmlns="http://www.w3.org/2000/svg" width="24" height="24" fill="none"><path stroke="#000" stroke-linecap="round" stroke-linejoin="round" stroke-width="1.5" d="M7.097 18.618s.632-3.678-1.166-5.705a.283.283 0 0 1 .006-.382c.62-.68 2.194.018 3.777 2.92.413.757 1.275.718 2.025.29 1.425-.813 3.318-2.933 4.627-3.264 1.72-.437 2.312.61 1.981.941l-7.501 7.498-3.749-2.298zm2.58 3.462 1.163-1.164-3.749-2.298-3.145 3.462m18.062-10.476H2m18.24 0c.009-.146.024-.29.024-.437a8.294 8.294 0 1 0-16.588 0c0 .148.014.29.022.437m7.834-8.731V2"/></svg>