<svg xmlns="http://www.w3.org/2000/svg" width="24" height="24"><path d="M12.166 9.286a.429.429 0 0 0-.428.428v4.715c0 .236.192.428.429.428h4.714a.429.429 0 0 0 .428-.428 5.148 5.148 0 0 0-5.143-5.143zm6.434.162a.214.214 0 0 1 .018-.283l1.415-1.415a.858.858 0 0 0-1.19-1.234l-.022.022-1.42 1.42a.213.213 0 0 1-.281.017 8.095 8.095 0 0 0-3.91-1.62.214.214 0 0 1-.186-.213V3.929a.214.214 0 0 1 .213-.215h1.5a.857.857 0 0 0 0-1.714H9.596a.858.858 0 0 0-.857.857c0 .473.384.857.857.857h1.5c.118 0 .214.096.214.215v2.213a.214.214 0 0 1-.186.212 8.154 8.154 0 1 0 9.12 7.056A8.154 8.154 0 0 0 18.6 9.448zm-6.434 11.41a6.429 6.429 0 1 1 6.429-6.43 6.435 6.435 0 0 1-6.428 6.43z"/></svg>