<svg width="309" height="72" fill="none" xmlns="http://www.w3.org/2000/svg"><g clip-path="url(#clip0)"><path d="M-11 25l74 30.5 69 5 68.5-16L346 25v79H-11V25z" fill="#fff"/><path fill-rule="evenodd" clip-rule="evenodd" d="M-42.7-231.2l-1.3 1c-32.4 23.9-47.5 57.5-46.1 100.6 1.4 44 17.1 83 42 118.8a198 198 0 0017 21.3c15.3 18 32.7 33.1 53.5 43 25.1 12.1 51.3 16.7 78 14.6l2.3-.1c3.5-.3 6.9-.5 10.3-1 41-6.3 82.4-10 124-12 31.7-1.6 62-9.2 88.5-27a50.3 50.3 0 01-6-5.6 63 63 0 00-63.8-19.6 93.6 93.6 0 00-27.6 12.8l-2.2 1.3c-19.4 10.9-38.8 21.9-59.5 29.4-54.8 19.9-105 15-147.4-20.1-51.7-43-75.2-100.7-67.5-172.6.8-6.8 1.9-24 3.3-47l2.5-37.8z" fill="#FFF1E5"/></g><defs><clipPath id="clip0"><path fill="#fff" d="M0 0h309v72H0z"/></clipPath></defs></svg>
