<svg width="42" height="32" fill="none" xmlns="http://www.w3.org/2000/svg"><path fill-rule="evenodd" clip-rule="evenodd" d="M7.994 28.918a4.849 4.849 0 0 1-3.452-1.432 4.86 4.86 0 0 1-1.43-3.456c0-1.306.507-2.533 1.43-3.456l8.005-8.014a6.408 6.408 0 0 0 1.886-4.557c0-1.722-.67-3.34-1.886-4.558a6.393 6.393 0 0 0-4.553-1.888c-1.72 0-3.337.67-4.553 1.888a6.407 6.407 0 0 0-1.885 4.558c0 1.721.67 3.34 1.885 4.557l1.253 1.254-1.1 1.101-1.252-1.254A7.954 7.954 0 0 1 0 8.003c0-2.138.831-4.148 2.342-5.66A7.938 7.938 0 0 1 7.994 0c2.136 0 4.143.832 5.653 2.344a7.955 7.955 0 0 1 2.342 5.659 7.955 7.955 0 0 1-2.342 5.658l-8.005 8.014a3.31 3.31 0 0 0-.975 2.355c0 .89.346 1.726.975 2.355.628.63 1.464.975 2.352.975.889 0 1.725-.346 2.353-.975.629-.63.974-1.466.974-2.355 0-.89-.345-1.726-.974-2.355l-1.252-1.253 1.1-1.101 1.252 1.252a4.859 4.859 0 0 1 1.43 3.457 4.858 4.858 0 0 1-1.43 3.456 4.85 4.85 0 0 1-3.453 1.432ZM8 32a7.952 7.952 0 0 1-5.657-2.34A7.933 7.933 0 0 1 0 24.01c0-2.135.832-4.14 2.343-5.65l8.012-8.002a3.303 3.303 0 0 0 .974-2.351c0-.888-.346-1.723-.974-2.352A3.311 3.311 0 0 0 8 4.681a3.31 3.31 0 0 0-2.354.974 3.303 3.303 0 0 0-.975 2.352c0 .888.346 1.723.975 2.351l1.253 1.253-1.1 1.099-1.254-1.252a4.846 4.846 0 0 1-1.432-3.451c0-1.304.509-2.53 1.432-3.451A4.858 4.858 0 0 1 8 3.126c1.305 0 2.532.508 3.455 1.43a4.846 4.846 0 0 1 1.432 3.45c0 1.304-.508 2.53-1.431 3.452l-8.012 8.001a6.39 6.39 0 0 0-1.887 4.55 6.39 6.39 0 0 0 1.887 4.551A6.405 6.405 0 0 0 8 30.445c1.721 0 3.339-.67 4.556-1.885a6.39 6.39 0 0 0 1.887-4.55c0-1.719-.67-3.335-1.887-4.55l-1.253-1.252 1.101-1.1 1.253 1.252A7.934 7.934 0 0 1 16 24.01c0 2.134-.832 4.14-2.343 5.65A7.954 7.954 0 0 1 8 32Zm14.296-19.281v-.402c0-2.33 1.207-3.242 3.543-3.054v-2.25C22 6.743 19.96 8.752 19.96 12.316v.402h-2.12v2.25h2.12v11.146h2.336V14.969h3.543v-2.25h-3.543Zm5.875 13.396h2.325v-13.43H28.17v13.43ZM27.77 9.4c0-.86.694-1.585 1.575-1.585.855 0 1.55.725 1.55 1.585s-.695 1.558-1.55 1.558A1.56 1.56 0 0 1 27.77 9.4Zm9.498 12.788v-7.265h3.559v-2.252h-3.56V9.287h-2.327v3.385h-2.113v2.252h2.113v7.265c0 3.35 1.873 4.423 5.887 3.887v-2.091l-.264.012c-2.205.102-3.295.152-3.295-1.808Z" fill="#fff"/></svg>
