<svg width="40" height="40" fill="none" xmlns="http://www.w3.org/2000/svg"><path d="M39.5 20c0 10.77-8.73 19.5-19.5 19.5S.5 30.77.5 20 9.23.5 20 .5 39.5 9.23 39.5 20Z" stroke="#fff"/><path fill-rule="evenodd" clip-rule="evenodd" d="M20 11.802c2.67 0 2.986.01 4.04.058.976.045 1.505.207 1.858.344a3.1 3.1 0 0 1 1.15.748c.35.35.566.684.748 1.15.136.353.3.882.344 1.857.048 1.055.058 1.37.058 4.04 0 2.671-.01 2.987-.058 4.042-.045.975-.208 1.504-.345 1.857-.18.466-.398.8-.748 1.15-.35.35-.683.566-1.15.748-.352.136-.881.3-1.856.344-1.055.048-1.37.058-4.041.058-2.67 0-2.987-.01-4.04-.058-.976-.045-1.505-.208-1.858-.345a3.099 3.099 0 0 1-1.15-.748 3.099 3.099 0 0 1-.748-1.15c-.137-.352-.3-.881-.344-1.856-.048-1.055-.058-1.37-.058-4.041 0-2.67.01-2.986.058-4.04.045-.976.207-1.505.344-1.858.182-.466.398-.8.748-1.15a3.1 3.1 0 0 1 1.15-.748c.353-.137.882-.3 1.857-.344 1.055-.048 1.37-.058 4.04-.058ZM20 10c-2.716 0-3.056.011-4.123.06-1.064.049-1.791.218-2.427.465a4.902 4.902 0 0 0-1.772 1.153 4.902 4.902 0 0 0-1.153 1.772c-.247.636-.416 1.363-.465 2.427C10.011 16.944 10 17.284 10 20s.011 3.056.06 4.123c.049 1.064.218 1.791.465 2.427a4.901 4.901 0 0 0 1.153 1.772 4.901 4.901 0 0 0 1.772 1.153c.636.247 1.363.416 2.427.465 1.067.048 1.407.06 4.123.06s3.056-.012 4.123-.06c1.064-.049 1.791-.218 2.427-.465a4.902 4.902 0 0 0 1.772-1.153 4.902 4.902 0 0 0 1.153-1.772c.247-.636.416-1.363.465-2.427.048-1.067.06-1.407.06-4.123s-.012-3.056-.06-4.123c-.049-1.064-.218-1.791-.465-2.427a4.903 4.903 0 0 0-1.153-1.772 4.903 4.903 0 0 0-1.772-1.153c-.636-.247-1.363-.416-2.427-.465C23.056 10.011 22.716 10 20 10Zm.02 4.88a5.139 5.139 0 1 0 0 10.278 5.139 5.139 0 0 0 0-10.277Zm0 8.476a3.336 3.336 0 1 1 0-6.672 3.336 3.336 0 0 1 0 6.672Zm6.488-8.713a1.19 1.19 0 1 1-2.381 0 1.19 1.19 0 0 1 2.38 0Z" fill="#fff"/></svg>
