<svg viewBox="0 0 62 48" xmlns="http://www.w3.org/2000/svg">
<path d="m12 48c-3.216 0-6.192-1.248-8.496-3.504-2.256-2.256-3.504-5.28-3.504-8.496s1.248-6.24 3.504-8.496l12-12c0.96-0.96 1.44-2.208 1.44-3.552s-0.528-2.592-1.44-3.552c-0.96-0.96-2.208-1.44-3.552-1.44s-2.592 0.528-3.552 1.488-1.488 2.208-1.488 3.552 0.528 2.592 1.488 3.504l1.872 1.872-1.632 1.632-1.872-1.872c-1.392-1.392-2.16-3.216-2.16-5.184 0-1.968 0.768-3.792 2.16-5.184s3.264-2.112 5.232-2.112 3.792 0.768 5.184 2.16 2.16 3.216 2.16 5.184-0.768 3.792-2.16 5.184l-12 12c-1.824 1.824-2.832 4.224-2.832 6.816s1.008 4.992 2.832 6.816 4.272 2.832 6.816 2.832c2.592 0 4.992-1.008 6.816-2.832s2.832-4.224 2.832-6.816-1.008-4.992-2.832-6.816l-1.872-1.872 1.632-1.632 1.872 1.872c2.256 2.256 3.504 5.28 3.504 8.496s-1.248 6.192-3.504 8.496c-2.256 2.208-5.232 3.456-8.448 3.456z" fill="#292C2F"/>
<path d="m12 43.344c-1.968 0-3.792-0.768-5.184-2.16s-2.16-3.216-2.16-5.184 0.768-3.792 2.16-5.184l12-12c1.824-1.824 2.832-4.272 2.832-6.816s-1.008-5.04-2.832-6.864-4.224-2.784-6.816-2.784-4.992 1.008-6.816 2.832-2.832 4.224-2.832 6.816 1.008 4.992 2.832 6.816l1.872 1.872-1.632 1.632-1.872-1.872c-2.304-2.256-3.552-5.232-3.552-8.448s1.248-6.24 3.504-8.496 5.28-3.504 8.496-3.504 6.24 1.248 8.496 3.504 3.504 5.28 3.504 8.496-1.248 6.192-3.504 8.496l-12 12c-0.96 0.96-1.488 2.208-1.488 3.504s0.528 2.592 1.488 3.504c0.96 0.96 2.208 1.488 3.552 1.488s2.592-0.528 3.504-1.488c0.96-0.96 1.44-2.208 1.44-3.504s-0.528-2.592-1.44-3.504l-1.872-1.872 1.632-1.632 1.872 1.872c1.392 1.392 2.16 3.216 2.16 5.184s-0.768 3.792-2.16 5.184c-1.392 1.344-3.216 2.112-5.184 2.112z" fill="#292C2F"/>
<path d="m33.504 18.384v0.624h5.328v3.36h-5.328v16.752h-3.504v-16.752h-3.168v-3.36h3.168v-0.624c0-5.376 3.072-8.4 8.832-7.968v3.36c-3.504-0.24-5.328 1.104-5.328 4.608z" fill="#292C2F"/>
<path d="m44.064 11.712c-1.296 0-2.352 1.056-2.352 2.352s1.056 2.352 2.352 2.4c1.296 0 2.352-1.056 2.352-2.352s-1.056-2.4-2.352-2.4zm1.776 7.296h-3.504v20.112h3.504v-20.112z" fill="#292C2F"/>
<path d="m56.016 22.368v10.896c0 3.072 1.776 2.88 5.376 2.688v3.12c-6.048 0.816-8.832-0.816-8.832-5.856v-10.848h-3.168v-3.36h3.168v-4.944h3.504v4.944h5.376v3.36h-5.424z" fill="#292C2F"/>
</svg>
