<svg width="24" height="24" viewBox="0 0 24 24" fill="none" xmlns="http://www.w3.org/2000/svg">
<path d="M22.0045 10.9596C22.0052 12.2775 21.7463 13.5825 21.2426 14.8003C20.7389 16.0181 20.0003 17.1247 19.069 18.0571C18.1376 18.9894 17.0317 19.7292 15.8145 20.2341C14.5972 20.7391 13.2924 20.9993 11.9746 21C9.30038 20.9556 6.75195 19.8568 4.88394 17.9426C3.01592 16.0285 1.97953 13.4541 2.00031 10.7796C2.00245 8.22318 3.00535 5.7692 4.7943 3.94302C6.58325 2.11685 9.01606 1.06363 11.5719 1.00884C11.7163 1.00276 11.8606 1.00015 12.0068 1.00015C13.3184 0.993031 14.6186 1.2455 15.8323 1.74302C17.046 2.24054 18.1492 2.97327 19.0785 3.89901C20.0078 4.82475 20.7448 5.9252 21.247 7.13698C21.7491 8.34876 22.0066 9.64792 22.0045 10.9596V10.9596Z" stroke="black" stroke-width="0.9" stroke-linecap="round" stroke-linejoin="round"/>
<path d="M11.5718 1.00891C6.35334 6.66227 6.35334 14.0377 11.5718 20.9957" stroke="black" stroke-width="0.9" stroke-linecap="round" stroke-linejoin="round"/>
<path d="M12.4417 1.00891C17.6601 6.66227 17.6601 14.0351 12.4417 20.9931" stroke="black" stroke-width="0.9" stroke-linecap="round" stroke-linejoin="round"/>
<path d="M3.64062 5.34351H20.2824" stroke="black" stroke-width="0.9" stroke-linecap="round" stroke-linejoin="round"/>
<path d="M2.00317 10.5624H22.0048" stroke="black" stroke-width="0.9" stroke-linecap="round" stroke-linejoin="round"/>
<path d="M3.29175 15.7808H20.7737" stroke="black" stroke-width="0.9" stroke-linecap="round" stroke-linejoin="round"/>
</svg>
