<svg width="40" height="40" fill="none" xmlns="http://www.w3.org/2000/svg"><path d="M39.5 20c0 10.77-8.73 19.5-19.5 19.5S.5 30.77.5 20 9.23.5 20 .5 39.5 9.23 39.5 20Z" stroke="#fff"/><path fill-rule="evenodd" clip-rule="evenodd" d="M10.91 18.481c0 2.336.878 4.413 2.762 5.187.31.127.586.005.675-.34.063-.238.21-.839.276-1.09.09-.34.055-.46-.195-.756-.542-.645-.89-1.48-.89-2.663 0-3.43 2.55-6.502 6.643-6.502 3.622 0 5.613 2.228 5.613 5.203 0 3.914-1.722 7.219-4.277 7.219-1.412 0-2.468-1.175-2.13-2.616.406-1.72 1.19-3.576 1.19-4.817 0-1.112-.592-2.038-1.818-2.038-1.442 0-2.602 1.501-2.602 3.513 0 1.282.43 2.148.43 2.148l-1.735 7.399c-.515 2.196-.077 4.887-.04 5.159.022.16.227.2.32.078.134-.175 1.851-2.31 2.437-4.443.164-.604.948-3.731.948-3.731.469.9 1.838 1.691 3.295 1.691 4.337 0 7.279-3.978 7.279-9.304 0-4.027-3.39-7.778-8.54-7.778-6.41 0-9.642 4.625-9.642 8.481Z" fill="#fff"/></svg>
