<svg width="40" height="40" fill="none" xmlns="http://www.w3.org/2000/svg"><path d="M39.5 20c0 10.77-8.73 19.5-19.5 19.5S.5 30.77.5 20 9.23.5 20 .5 39.5 9.23 39.5 20Z" stroke="#fff"/><path fill-rule="evenodd" clip-rule="evenodd" d="M27.751 15.314a4.1 4.1 0 0 0 1.721-2.284 7.592 7.592 0 0 1-2.487 1.002 3.813 3.813 0 0 0-2.859-1.305c-2.163 0-3.915 1.85-3.915 4.13 0 .325.032.64.1.942-3.255-.173-6.14-1.816-8.073-4.316a4.294 4.294 0 0 0-.53 2.077c0 1.432.691 2.697 1.743 3.44a3.777 3.777 0 0 1-1.775-.517v.05c0 2.003 1.349 3.673 3.143 4.05-.33.098-.675.146-1.033.146-.252 0-.499-.025-.737-.073.498 1.64 1.945 2.836 3.66 2.868a7.604 7.604 0 0 1-5.8 1.711 10.68 10.68 0 0 0 6.004 1.856c7.205 0 11.143-6.294 11.143-11.753 0-.18-.002-.358-.01-.535A8.185 8.185 0 0 0 30 14.664a7.506 7.506 0 0 1-2.249.65Z" fill="#fff"/></svg>
