<svg width="40" height="40" fill="none" xmlns="http://www.w3.org/2000/svg"><path d="M39.5 20c0 10.77-8.73 19.5-19.5 19.5S.5 30.77.5 20 9.23.5 20 .5 39.5 9.23 39.5 20Z" stroke="#fff"/><path fill-rule="evenodd" clip-rule="evenodd" d="M15.927 14.839c-.026.353-.03 2.846-.004 2.889.019.032 1.184.046 1.295.016.049-.013.052-.124.052-1.77V14.22l.089-.281c.049-.155.171-.56.272-.902a288.288 288.288 0 0 1 .272-.91c.44-1.437.86-2.852.87-2.932l.014-.099-.615-.003c-.556-.003-.725 0-.74.014-.008.007-.2.738-.541 2.063-.164.631-.3 1.136-.305 1.121-.004-.012-.12-.436-.278-1.023l-.157-.58c-.233-.866-.43-1.58-.435-1.585a32.421 32.421 0 0 0-1.356-.007c-.014 0-.027-.004-.035 0-.044.024.044.292.814 2.752.127.404.317.977.422 1.272.323.91.4 1.267.366 1.72Zm-1.434 6.948-.015 3.683-.015 3.683-.598.008c-.46.006-.6 0-.611-.03-.008-.021-.018-1.683-.022-3.691l-.008-3.653-.671-.007-.672-.009V20.62l1.985.008 1.986.008.01.568.007.567-.688.009-.688.007Zm11.492 2.376c-.038.123-.077.974-.049 1.048.015.04.1.047.61.047h.594l-.01-.538c-.01-.493-.017-.55-.082-.684-.104-.21-.258-.305-.5-.305-.292 0-.476.142-.563.432Zm2.194 3.891c-.152.563-.554.961-1.135 1.125-.784.22-1.647-.142-1.991-.832-.193-.389-.2-.466-.2-2.362 0-1.546.006-1.735.055-1.945.139-.598.485-.984 1.07-1.198.776-.284 1.71.075 2.048.785.177.376.199.536.217 1.593l.015.946-1.158.01-1.159.006-.009.637c-.012.898.048 1.174.29 1.338.202.137.514.126.684-.023.16-.14.205-.292.221-.731l.014-.387h1.12l-.018.432c-.01.237-.04.51-.064.606Zm-5.568-.175a.407.407 0 0 1-.155.22c-.181.122-.444.083-.683-.1l-.106-.08V24.052l.106-.081c.324-.248.677-.221.817.063.055.11.059.21.065 1.905.007 1.626.002 1.801-.044 1.94Zm1.03.836c-.095.214-.308.424-.484.476-.456.135-.822.026-1.245-.374-.132-.124-.254-.225-.272-.225-.022 0-.034.097-.034.288v.288H20.52v-8.547H21.606v1.394c0 .767.01 1.395.022 1.395.013 0 .128-.102.256-.226.294-.285.54-.409.85-.433.557-.042.888.244 1.04.9.047.205.052.44.052 2.334 0 2.31 0 2.32-.184 2.73Zm-5.584-.03c-.215.219-.47.396-.687.477-.45.17-.878.071-1.06-.244-.168-.288-.17-.353-.17-3.341v-2.744h1.086l.008 2.584c.008 2.538.01 2.586.07 2.689.08.137.204.175.398.12.115-.03.193-.087.378-.273l.235-.233v-4.886H19.402v6.334H18.315v-.333c0-.252-.01-.334-.04-.334-.02 0-.12.082-.218.183Zm-2.084 3.077c.316.011 1.152.031 1.858.043 1.471.026 4.177.011 5.724-.032 1.04-.03 2.938-.106 3.292-.134.1-.008.33-.022.513-.033.615-.035 1.006-.164 1.372-.453.475-.375.842-1.066.997-1.877.148-.767.246-2.134.266-3.686a28.088 28.088 0 0 0-.099-3.12c-.119-1.42-.211-1.88-.503-2.47-.387-.784-.945-1.197-1.74-1.287-.614-.07-2.925-.17-5.065-.218-3.704-.082-9.793.077-10.572.277a1.86 1.86 0 0 0-.909.529c-.49.49-.784 1.194-.902 2.169-.268 2.222-.274 4.91-.015 7.213.111.991.341 1.635.771 2.165.27.332.732.613 1.147.697.29.059 1.745.14 3.865.217Zm7.897-13.929c-.303-.04-.48-.158-.602-.4-.153-.303-.153-.301-.153-3.322v-2.818h1.225l.013 2.598c.014 2.822.01 2.756.178 2.799.155.038.326-.045.54-.263l.203-.208.008-2.464.008-2.462.612-.009.612-.007v6.452l-.084.017c-.1.02-1.028.02-1.102-.002-.046-.013-.053-.054-.053-.307v-.293l-.174.17c-.4.39-.831.573-1.23.52Zm-3.084-1.232c.21-.16.211-.174.222-1.987.01-1.41.004-1.65-.038-1.841-.058-.26-.158-.383-.355-.437-.255-.068-.488.078-.57.357-.062.215-.061 3.413.001 3.628.048.161.2.338.312.363a.57.57 0 0 0 .428-.083Zm-.48 1.23c-.548-.066-1.051-.389-1.293-.83-.247-.45-.27-.686-.256-2.666.012-1.534.016-1.63.076-1.85.145-.523.425-.88.859-1.095a1.762 1.762 0 0 1 1.8.108c.357.232.575.568.691 1.068.051.22.056.39.056 1.94 0 1.883-.009 1.992-.201 2.4-.185.393-.604.74-1.04.861a2.307 2.307 0 0 1-.692.065Z" fill="#fff"/></svg>
